<svg xmlns="http://www.w3.org/2000/svg" height="800" width="1200" viewBox="-180 -168.4795 1560 1010.877"><path d="M618.707 213.383c7.412 0 28.379-.6 46.792 18.613.56.584.557 1.531-.005 2.112l-12.023 12.417a1.499 1.499 0 01-2.113.044 434.699 434.699 0 00-3.302-3.132c-10.055-8.629-19.107-10.261-28.771-10.261-18.967 0-34.903 16.16-34.903 36.161s16.455 36.459 35.653 36.459c19.01 0 27.959-7.246 32.284-22.202.139-.482-.229-.986-.731-.986h-29.31a1.501 1.501 0 01-1.501-1.501V265.77c0-.829.672-1.501 1.501-1.501h50.125c.983 0 1.587.713 1.587 1.425 1.299 34.272-18.36 59.585-54.893 59.585-31.255 0-55.735-25.046-55.735-55.941 0-31.835 25.758-55.955 55.345-55.955zm0 135.793c7.412 0 28.379-.6 46.792 18.613.56.584.557 1.531-.005 2.112l-12.023 12.417a1.499 1.499 0 01-2.113.044 434.699 434.699 0 00-3.302-3.132c-10.055-8.629-19.107-10.261-28.771-10.261-18.967 0-34.903 16.16-34.903 36.161s16.455 36.459 35.653 36.459c19.01 0 27.959-7.246 32.284-22.202.139-.482-.229-.986-.731-.986h-29.31a1.501 1.501 0 01-1.501-1.501v-15.336c0-.829.672-1.501 1.501-1.501h50.125c.983 0 1.587.713 1.587 1.425 1.299 34.272-18.36 59.585-54.893 59.585-31.255 0-55.735-25.046-55.735-55.941 0-31.837 25.758-55.956 55.345-55.956zm125.764-135.784c-30.582 0-55.374 25.046-55.374 55.941 0 30.896 24.792 55.941 55.374 55.941s55.374-25.046 55.374-55.941c0-30.895-24.792-55.941-55.374-55.941zm0 92.157c-18.965 0-34.34-16.214-34.34-36.216 0-20.002 15.374-36.215 34.34-36.215 18.965 0 34.34 16.214 34.34 36.215 0 20.001-15.375 36.216-34.34 36.216zm126.575-92.157c-30.582 0-55.374 25.046-55.374 55.941 0 30.896 24.792 55.941 55.374 55.941s55.374-25.046 55.374-55.941c0-30.895-24.792-55.941-55.374-55.941zm0 92.157c-18.965 0-34.34-16.214-34.34-36.216 0-20.002 15.374-36.215 34.34-36.215s34.34 16.214 34.34 36.215c0 20.001-15.375 36.216-34.34 36.216zM747.87 351.814h-21.179c-.6 0-1.143.358-1.38.91l-44.433 103.613a1.502 1.502 0 001.38 2.094h17.705c.751 0 1.43-.449 1.726-1.14l8.526-19.97a.938.938 0 01.863-.57h52.405c.376 0 .715.224.863.57l8.526 19.97c.295.691.974 1.14 1.726 1.14h17.705a1.502 1.502 0 001.38-2.094L749.25 352.724a1.502 1.502 0 00-1.38-.91zm-29.296 65.933l18.275-43.128a.47.47 0 01.863 0l18.275 43.128a.47.47 0 01-.431.654h-36.55a.47.47 0 01-.432-.654zm307.722-48.193v-16.239c0-.829-.672-1.501-1.501-1.501h-78.316c-.829 0-1.501.672-1.501 1.501v103.616c0 .829.672 1.501 1.501 1.501h78.316c.829 0 1.501-.672 1.501-1.501l-.01-16.248c0-.829-.672-1.501-1.501-1.501h-58.744a.938.938 0 01-.938-.938l.005-24.22c0-.518.42-.938.938-.938h53.134c.829 0 1.501-.672 1.501-1.501v-15.336c0-.829-.672-1.501-1.501-1.501h-53.134a.938.938 0 01-.938-.938v-21.815c0-.518.42-.938.938-.938h58.744a1.504 1.504 0 001.501-1.503zm-134.224-16.529l-27.129 60.316a.47.47 0 01-.855 0l-27.129-60.316a2.063 2.063 0 00-1.88-1.213h-23.324c-.829 0-1.501.672-1.501 1.501v103.619c0 .829.672 1.501 1.501 1.501h16.182c.829 0 1.501-.672 1.501-1.501v-76.697c0-.505.689-.653.897-.193l26.008 57.573a1.5 1.5 0 001.368.883h13.611c.59 0 1.125-.346 1.368-.883l26.008-57.573c.208-.46.897-.312.897.193v76.697c0 .829.672 1.501 1.501 1.501h16.159c.829 0 1.501-.672 1.501-1.501V353.313c0-.829-.672-1.501-1.501-1.501h-23.301c-.812 0-1.547.474-1.882 1.213zm92.778-30.419c11.259-.368 22.578-1.749 29.488-6.252 12.835-8.364 22.914-22.579 22.914-45.699 0-22.369-9.765-37.632-20.868-45.728-12.845-9.366-32.7-8.866-39.548-8.866h-30.358c-.829 0-1.501.672-1.501 1.501v103.543c0 .829.672 1.501 1.501 1.501zm-19.742-86.365c0-.518.42-.938.938-.938h11.373c13.187.164 20.008 1.529 27.652 6.869 12.256 8.561 11.693 28.483 11.693 28.483s.693 19.942-12.561 28.032c-4.848 2.959-13.354 4.672-20.698 4.672H966.02a.922.922 0 01-.914-.938v-66.18zm-496.683-2.107l-130.25-79.261c-8.493-5.162-22.389-5.166-30.88 0L177.01 234.131c-7.851 4.776-14.274 16.093-14.272 25.283l.003 155.093c.002 9.19 6.416 20.508 14.27 25.281l130.279 79.261c8.493 5.162 22.395 5.168 30.886.002l130.247-79.261c7.851-4.776 14.272-16.092 14.27-25.282l.002-155.094c0-9.19-6.417-20.507-14.27-25.28zm-19.804 188.668l-121.135 73.695c-2.614 1.59-6.891 1.59-9.505 0l-121.135-73.695c-12.359-7.519-12.359-19.822 0-27.341l73.504-44.695c2.614-1.59 6.891-1.59 9.505 0l18.548 11.284c3.533 2.149 3.532 5.665-.001 7.812l-58.214 35.364c-3.533 2.148-3.534 5.663-.001 7.813l74.823 45.521c4.247 2.584 11.198 2.584 15.445 0l74.827-45.523c3.531-2.148 3.531-5.663 0-7.812l-18.491-11.249c-2.615-1.591-6.894-1.59-9.508.002l-49.802 30.307c-2.614 1.592-6.884 1.593-9.499.002l-18.488-11.248c-3.535-2.151-3.537-5.666 0-7.813l74.955-45.507c4.245-2.577 11.19-2.584 15.432-.003l58.739 35.746c12.359 7.518 12.359 19.821.001 27.34zm0-144.343l-121.135 73.695c-2.614 1.59-6.891 1.59-9.505 0l-121.135-73.695c-12.359-7.519-12.359-19.822 0-27.341l121.135-73.695c2.614-1.59 6.891-1.59 9.505 0l18.566 11.295c3.532 2.149 3.532 5.665-.001 7.813l-105.863 64.353c-3.533 2.148-3.534 5.663-.001 7.813l74.825 45.521c4.247 2.584 11.198 2.584 15.445 0l74.827-45.523c3.531-2.148 3.531-5.663 0-7.812l-18.491-11.249c-2.615-1.591-6.894-1.59-9.508.002l-49.802 30.307c-2.614 1.592-6.884 1.593-9.499.002l-18.488-11.248c-3.535-2.151-3.537-5.666 0-7.813l74.955-45.503c4.245-2.577 11.19-2.578 15.432.003l58.739 35.735c12.357 7.518 12.357 19.822-.001 27.34z" fill="#005EB8"/><path fill="none" d="M0 0h1200v673.918H0z"/></svg>